<svg xmlns="http://www.w3.org/2000/svg" xmlns:xlink="http://www.w3.org/1999/xlink" width="442" height="504" viewBox="0 0 442 504">
  <defs>
    <clipPath id="clip-path">
      <rect id="Rectangle_32" data-name="Rectangle 32" width="442" height="504" transform="translate(0 -0.366)" fill="#f7f7f7"/>
    </clipPath>
  </defs>
  <g id="Group_115" data-name="Group 115" transform="translate(0 118.366)" opacity="0.5">
    <g id="Group_114" data-name="Group 114" transform="translate(0 -118)" clip-path="url(#clip-path)">
      <path id="Path_85" data-name="Path 85" d="M202.239,503.267c-13.684-13.33-14.571-17.542-5.838-30.152,1.033-1.492,1.877-3.114,2.81-4.678,10.96,1.168,22.006,3.615,32.841,2.9,4.553-.3,8.667-7.275,12.982-11.218q-1.116-1.113-2.234-2.223c-10.8,17.927-33.231,17.84-44.765-1.816.4,5.149.659,8.617.923,12.083-1.98-1.392-3.963-2.783-4.3-3.022-7.965,2.438-15.479,3.252-21.269,6.842-9.6,5.954-12.45-3.969-18.476-6.157a26.913,26.913,0,0,1-3.788-2.1c1.317-8.415-4.683-2.79-7.243-3.866-5.317-2.238-12.846-3.571-15.037-7.652-2.109-3.934,1.206-10.895,2.475-16.45.328-1.435,1.923-2.58,2.936-3.86q-.742-1.379-1.479-2.761c-4.136,1.632-8.8,2.525-12.306,5.044-8.582,6.173-5.409,14.84-.9,20.748,3.315,4.343,10.481,6.291,16.315,7.989,4.7,1.368,9.976.761,15,1.031-4.276,1.02-8.505,2.584-12.838,2.952-12.006,1.015-19.137-3.6-23.763-14.647-4.976-11.884-8.151-13.358-21.083-9.875a45.33,45.33,0,0,1-7.411,1.7c-7.28.689-16.269-8.882-15.337-16.126,8.538,6.512,16.323,16.116,28.837,9.008,6.241-3.547,14.238-7.092,16.916-12.772,1.882-4-3.864-11.59-6.2-17.579l-4.6.8c-.3,2.853-.481,5.724-.908,8.558-.757,5.039-.022,11.7-2.956,14.634-3.094,3.094-9.755,2.619-14.857,3.7q-.469-1.648-.939-3.3c6.855-1.547,17.282,1.046,15.466-10.842-.333-2.175-5.1-3.669-7.829-5.479q-1.054,1.562-2.109,3.129c1.586,2.416,3.175,4.831,5.188,7.9-7.647,1.783-11.14-1.5-14.1-7.451-1.077-2.164-5.192-2.816-7.921-4.157l-1.963,2.7c3.849,4.348,8.015,8.759-1.26,10.457-1.361-3.562-2.72-7.127-4.324-11.321,10.015-6.026,2.713-13.772-.212-20.1-1.2-2.58-8.284-3.357-12.7-3.368-17.326-.044-31.049-5.954-33.879-19.875C17.2,358.307,8.86,348.976,0,339.158V315.089c2.9-4.107,6.47-7.9,8.553-12.385,4.7-10.1-4.289-15.586-8.553-22.625V260.386c7.44-10,14.877-19.993,22.214-29.85a23.439,23.439,0,0,0-2.6-2.446C-4.048,214.077-5.543,194.666,15.709,177.4a18.722,18.722,0,0,0,3.013-3.09c7.319-9.507,14.593-19.048,22.772-29.743a68.551,68.551,0,0,1-4.254-6.818c-10.875-21.067-.427-47.3,20.371-48.937,9.521-.748,11.7-4.155,12.973-12.728C74.179,52,92.816,40.9,115.964,47.959a43.226,43.226,0,0,0,4.6.923,11.949,11.949,0,0,0,1.068-1.571C132.88,16.619,141.67,11.9,172.953,19.059c2.306.527,5.578-1.6,7.943-3.184C188.544,10.757,195.979,5.317,203.5,0H238.5l19.476,15.017-4.094-.278q3.006,16.939,6,33.824c.683-.109,1.368-.223,2.05-.333q-1.864-16.483-3.729-32.964c2.394,2.013,4.785,4.024,6.976,5.869C292.4,8.245,302.715,13.4,321.476,48.692c30.069-7.829,43.878.726,50.2,31.778,1.208,5.93,3.766,7.365,9.4,7.833,16.94,1.4,26.879,11.523,26.345,28.662-.324,10.415-4,20.726-5.844,29.518,6.672,8.877,13.418,17.958,20.308,26.931a21.35,21.35,0,0,0,4.755,4.339C445.98,191.226,445.2,214.407,425,226.376c-1.783,1.055-3.357,2.466-5.483,4.055L442,262.574v15.317c-1.792,3.092-2.947,6.917-5.5,9.142-8.337,7.273-6.107,13.914-.081,21.093,2.271,2.707,3.744,6.081,5.58,9.151V336.97c-5.864,8.851-14.078,16.971-17.1,26.7-6.26,20.185-16.253,28.912-37.7,28.82-4.265-.02-10.739,1.254-12.352,4.1-3.341,5.9-9.919,13.313-2.263,17.991,0,6.225,1.667,11.663-.341,14.348-4.359,5.825-10.063,13.387-16.2,14.426-7.324,1.243-15.678-3.6-23.581-5.8,5.044.123,10.525-.98,15.035.637,7.912,2.836,13.17-.4,16.424-6.28,2.571-4.652,2.753-10.623,4.061-16.286-5.5-3.759-7.076-.5-10.05,4.311-2,3.238-7.993,4.024-12.247,5.8-.129.057-.761-1.087-1.147-1.67,2.1-1.93,4.2-3.86,6.523-6-6.683-3.827-12.236-7.009-18.336-10.5-6.864,7.536-12.538,15.085-2.525,24.815,1.166,1.129,1.328,3.289,1.954,4.974q-4.185,11.035-8.367,22.069c.168-3.442-.987-7.917.746-10.144,5.9-7.588-.827-11.82-4.287-15.73-2.379-2.694-7.921-2.593-12.048-3.737,4.847,8.709,11.109,16.048,4.039,23.369-4.687,4.855-13.076,6.138-19.809,9.017q-.121.614-.236,1.223,15.682-1.841,31.364-3.689c-7.116,2.394-14.1,5.416-21.389,7-6.437,1.4-14.21-.709-19.634,2.116-9.739,5.066-22.072,4.346-30.669-4.63l26.907,4.748c1.033-6.278,2.551-12.884,2.932-19.557.1-1.821-2.919-4.553-5.087-5.442-.987-.4-3.873,2.372-5.046,4.243a50.872,50.872,0,0,0-3.536,7.875c-4.518-2.923-7.9-5.111-11.28-7.3-1.674,3.952-3.411,7.882-4.967,11.882a10.436,10.436,0,0,0-.175,3.234c-7.687,1.488-8.413,5.385-4.553,11.674,4.315,7.026,5.759,14.3-1.628,20.468-2.221,1.853-5,3.028-7.529,4.516q.335,1.349.672,2.7M381.426,319.962,400.892,336.9c.236-.291.475-.58.709-.869q-5.16-7.634-10.321-15.267c5.759,4.324,11.219,9.146,17.356,12.844,7.389,4.453,15.352,7.374,25.5-1.562-14.188,5.674-23.566,1.46-32.3-6.14-3.744-3.256-8.19-5.7-12.315-8.516q-4.208,1.237-8.424,2.468c-1.722,11.046,6.328,15.706,14.12,20.546l-13.792-20.444m-2.772,56.331,19.409,11.525c-3.326-4.2-8.464-5.862-11.794-9.282-3.656-3.753-5.667-9.116-8.354-13.8-2.232-3.893-4.4-7.82-6.6-11.731q-.391.394-.779.79,3.942,11.09,7.886,22.194-6.558-9.479-13.113-18.953c5.523,11.435,6.068,26.336,20.853,31.677l-7.505-12.422M336.71,102.984c-.37,1.308-.737,2.617-1.33,4.72,11.809-3.9,23.338-6.989,29.964-16.757-9.175,3.829-18.8,7.847-28.421,11.864,6.07-3.768,12.411-7.168,18.146-11.394,7.389-5.442,13.687-11.814,9.645-25.767-1.761,23.363-18.586,28.5-33.706,36.259,2.385.451,4.044.764,5.7,1.074m59.029,271.007c-4.311-4.389-9.116-8.407-12.783-13.277-3.451-4.58-5.7-10.063-8.481-15.146,2.232,8.3,5.7,15.748,9.442,23.061,5.551,10.86,14.159,14.054,23.713,10.059-3.26-1.271-7.466-2.906-11.663-4.538l19.286-2.685-.144-3.149c-10.523,5.9-18.743,2.085-26.573-4.886q3.6,5.281,7.2,10.562M81.787,90.155q-3.505-1.4-7.011-2.816-.857,1.625-1.718,3.245,14.652,8.6,29.3,17.188c.3-.562.6-1.129.9-1.691l-20.686-15.1q13.631,5.99,27.262,11.978C103,98,94.8,95.006,88.886,89.536c-5.744-5.315-9.14-13.166-13.566-19.9q-.735.131-1.475.265,3.971,10.129,7.943,20.255m129.6-50.283c.783-3.319,1.567-6.639,1.831-7.763-4.278,1.713-9.461,5.632-14.24,5.188-4.89-.455-9.383-5.184-13.415-7.654,3.107,12.081,9.026,14.938,24.958,11.087v5.862c9.615-5.125,10.895-11.814,9.479-20.45-3.313,5.28-5.965,9.505-8.612,13.73M227.188,19c7.967,9.553,3.333,19.207.234,28.85-4.245.661-8.472,1.652-12.739,1.871-3.092.158-6.236-.709-9.352-1.127L182.946,40.18c.534,11.151,7.711,14.089,22.31,8.739,1.4,1.838,2.42,4.4,4.276,5.383,6.748,3.584,10.914,8.089,8.8,16.4-.276,1.088,1.335,2.654,2.072,4q1.434.414,2.869.825c-1.873-11.017.466-19.415,11.2-21.984-2.484-1.993-4.645-3.729-6.807-5.459,2.634-4.262,7.772-8.768,7.383-12.73-.81-8.221-4.553-16.151-7.092-24.2,17.024,7.895,8.3,24.684,12.3,37.9,9-19.008.23-40.005-18.109-44.666,1.971,2.341,3.748,4.448,5.516,6.553q-3.026,1.241-6.057,2.484l-3.694.328c2.858,8.21,5.8,16.665,9.271,26.645ZM49.953,380.846c-2.383,1.746-4.768,3.49-7.932,5.805,20.855-2.58,22.308-20.56,29.032-33.8-3.729,4.532-5.711,10.236-9.008,15.032-3.252,4.733-7.833,8.547-11.833,12.766l17.98-32.883C56.9,359.56,55.031,381.89,30.977,379.595q9.485.624,18.975,1.252M26.461,247.229q4-7.986,8-15.975l-1.761-.965Q23.766,245.6,14.831,260.909q.9.5,1.8,1,4.785-7.185,9.569-14.369-3.23,14.845-6.455,29.695c.274-.077.551-.151.827-.228,6.963-16.387,13.923-32.771,19.3-45.432-2.831,3.3-8.122,9.481-13.415,15.654m8.7,87.492c2.206.593,5.516,2.413,6.437,1.582,5.985-5.387,11.45-11.348,17.085-17.124-.381-.219-.761-.442-1.142-.663q-11.127,8-22.251,16,10.427-11.629,20.859-23.258-1.333-1.408-2.667-2.814c-3.785,3.394-9.179,6.07-11.065,10.308-6.656,14.969-17.818,18.393-33.564,14.361,9.2,9.017,17.862,2.19,26.308,1.608M396.415,166.514c10.033,2.818,10.21,11,10.109,19.076-.092,7.584-1.2,15.179-.915,22.737.344,9.308,5.418,14.466,16.153,14.453-11.324-5.411-12.956-7.84-13.052-19.376-.061-7.6,1.158-15.382-.142-22.739-.982-5.578-4.974-10.65-7.906-15.785-.153-.269-2.932.958-4.5,1.484-.836,1.188-2.56,3.254-2.381,3.435,8.623,8.713,6.936,19.061,5.578,29.73-.7,5.505.678,11.278,1.118,16.929,1.494-6.4,1.427-12.558,1.51-18.711.147-10.776,2.026-21.846-5.575-31.233M137.587,52.331l-8.514-11.083c3,26.1,28.8,24.9,43.5,36.41-5.3-5.567-11.884-9.385-18.253-13.536-5.6-3.65-10.956-7.674-16.415-11.525l5.472-.337c-7.481-11.155-3.775-20.538,6.315-30.754-15.433,7.849-16.853,12.286-12.107,30.824M35.157,218.514c10.173-2.993,7.12-11.5,7.374-18.361.357-9.652.09-19.328.09-28.995a58.361,58.361,0,0,0-3.271,17.256c-.512,10.052,4.51,20.818-4.085,29.761.254-7.593,1.678-15.369.512-22.737C33.472,180.916,33.8,168.2,50.1,161.356c-13.146,2.333-17.824,11.21-18.448,22.654-.311,5.75.919,11.577,1.365,17.376.724,9.413-1.68,17.223-10.9,22.008q6.522-2.449,13.039-4.88M190.64,391.94c4.665.615,9.477.709,13.958,1.971,6.109,1.72,8.575,5.536,5.444,11.551-3.3-3.063-5.847-5.431-8.394-7.8-1.967,2.357-5.5,4.711-5.5,7.065,0,2.993,3.227,8.68,4.438,8.516,5.5-.733,12.435-1.621,15.733-5.273a8.681,8.681,0,0,0-4.217-14.245c-6.862-2.094-14.536-1.532-21.857-2.136a58.427,58.427,0,0,0-4.8,6c-1.947,3.177-3.521,6.586-5.254,9.9q-.857-.745-1.715-1.488.338-4.71.678-9.418c-2.195.466-6.2.731-6.28,1.433-.407,3.628-.976,8.155.816,10.816,1.473,2.184,7.225,3.967,9.205,2.786,3.549-2.118,6.42-6.273,8.159-10.205,1.147-2.591-.186-6.28-.409-9.477m-.694-265.349q-5.567.693-11.135,1.381c2.313,2.584,4.674,5.127,6.928,7.759,3.1,3.619,8.667,7.4,8.536,10.936-.16,4.389-4.545,9.124-8.118,12.7-2.223,2.228-6.317,2.593-9.571,3.792q.555,1.241,1.112,2.481c10.127-4.591,20.253-9.184,27.176-12.321v-26.78c-4.654-.466-9.359,12.746-14.634.219l9.971-26.166-4.575-1.249q-2.842,13.624-5.689,27.246M313.028,159.8c15.973,11.479,11.849,28.824,12.192,44.865,8.7-25.7,2.788-47.268-15.122-58.462-12.658-7.912-29.669-7.4-39.255,1.926,5.1-.309,9.407-.961,13.669-.751,10.873.534,22.179.4,28.281,12.166-15.916-12.046-35.019-6.26-53.106-7.477,1.407-4.744,2.252-7.58,3.094-10.418q-1-1.244-2-2.49c-3.267,1.7-8.96,3.068-9.249,5.175-.466,3.385,1.694,9.028,4.464,10.523a27.748,27.748,0,0,0,15.363,2.689c15.538-1.7,30.358-1.477,43.513,10.481-.79-3.529-1.317-5.877-1.845-8.227m30.356,209.974c-.74,2.444-1.479,4.893-2.547,8.424l17.582-6.6c-2.836-4.895-5.057-8.724-7.774-13.411-3.092,4.965-5.072,8.142-7.052,11.317-.214-1.805.123-3.963-.755-5.35a49.87,49.87,0,0,0-8-10.155c-.735-.676-4.2,1.615-6.407,2.54,1.772,2.963,3.545,5.925,5.564,9.3-10.1,1.245-10.785-4.063-9.654-11.862.827-5.715,6.777-12.792-2.847-16.905,3.545-4.072,6.847-8.391,10.676-12.175,22.323-22.072,13.612-75.781-6.794-87.807,3.166,4.851,6.827,9.461,9.365,14.623a69.211,69.211,0,0,1,6.3,17.341c4.289,22.77,1.383,47.434-27.087,56.7-5,1.628-9.3,8.737-11.685,14.28-3.149,7.319-7.262,11.857-14.962,14.3-13.724,4.359-27.325,9.227-40.572,14.842-3.188,1.35-6.823,6.68-6.5,9.79.291,2.783,5.492,6.7,8.967,7.232,15.925,2.429,30.43-.742,41.417-13.822,4.387-5.23,8.888-10.367,13.343-15.555-2.2,4.864-5.93,9.645-6.2,14.61-.315,5.836,1.033,12.77,4.265,17.411,1.926,2.764,9.282,3.51,13.391,2.341,2.562-.729,4.337-6.6,5.011-10.413.263-1.49-3.459-3.685-5.367-5.556L306,385.726c.584-5.855.348-10.31,1.586-14.308,1.818-5.868,3.593-11.175-3.372-14.811,1.827-9.816,7.763-16.028,16.989-19.371-3.162,5.416-8.413,10.582-9.092,16.291-1.941,16.315,13.328,23.879,31.273,16.247M124.718,166.144c15.943-8.181,32.509-11.687,50.478-8.111,3.411.678,8.488-1.011,10.989-3.457s4.166-7.51,3.481-10.868c-.389-1.919-6.2-2.733-12.052-5.006,2.179,6.488,3.125,9.306,3.917,11.669l-48.581,5.68c9.746-13.711,25.093-5.866,38.6-9.006-16.376-9.663-34.585-7.619-47.2,4.459-13.3,12.733-16.538,37.075-6.241,57.208-.862-7.553-1.8-12.895-2.011-18.262-.359-9.164-.249-18.339,8.623-24.306M366,260.091c1.466-3.271,4.1-6.558,4.052-9.809-.035-2.936-3-5.836-4.667-8.752q-1.589,1.218-3.179,2.435,1.7,3.4,3.407,6.792-1.28.926-2.554,1.856c-2.383-3.4-5.035-6.645-7.083-10.234-3.16-5.538-5.908-11.313-8.829-16.986-.512-2.451-2.171-6.527-1.359-7.1,7.853-5.543,1.882-9.731-.853-14.376a56.085,56.085,0,0,1-4.967-9.678c-6.978-20.006,7.1-38.415,26.432-34.75,12.906,2.449,24.577,17.6,20.735,32.636-4.785,18.719.61,35.386,4.694,52.758a39.59,39.59,0,0,0-.011-6.07c-.348-14.785.07-29.632-1.221-44.331-.9-10.216-2.149-21.268-6.768-30.1-7.446-14.24-26.338-16.525-37.546-6.536-10.47,9.33-21.159,52.182-16.315,65.528a8.452,8.452,0,0,0,1.241,1.781c3.291,5.518,7.514,10.693,9.7,16.619,6.547,17.724,6.236,17.84,24.7,18.573l-3.586,12.851-15.188-11.026c1.385,8.044,1.424,13.177,3.217,17.6,3.206,7.936,10.3,11.91,18.328,10.335,5.241-1.028,12.247-4.643,13.954-8.906,1.748-4.376-.731-11.8-3.755-16.262-2.068-3.055-8.238-3.33-12.579-4.847m-122.7,155.381c1.333-5.954,6.623-12.886-2.173-16.739-1.915-.838-6.223,3.788-9.264,5.788-2.549-7.663-2.549-7.663,12.86-14.361-4.343.018-9.092.125-12.374,2.376-3.6,2.464-8.75,7.728-8.024,10.3,1.293,4.582,6.131,8.531,10.245,11.787,1.9,1.505,5.591.755,8.468,1.026-15.245.234-30.491.547-45.738.652-4.085.028-8.168-.643-12.262-.869-3.2-.175-6.532.368-9.6-.315-9.761-2.175-19.424-4.774-29.126-7.21,1.481,3.744,3.5,5.422,5.825,6.195,45.46,15.146,91.017,15.435,136.521.3,9.332-3.1,16.253-10.466,17.848-17.689-1.125.271-2.755.206-3.037.794-9.68,19.934-31.62,9.271-45.64,18.29-.394.254-1.35-.556-2.044-.554-4.16.022-8.315.136-12.483.221m20.912-212.407q1.556,2.924,3.109,5.851c-.866,8.391,3.367,13.691,10.383,17.437,3.807,2.033,34.868-1,37.585-3.971a7.52,7.52,0,0,0,1.969-3.805c1.225-10.061,3.715-20.253,2.993-30.2-.912-12.562-9.054-21.271-21.065-25.454-12.6-4.394-24.2-1.871-32.658,8.457-6.048,7.383-10.391,16.161-15.761,24.741l13.444,6.943m-128.675,6.969c-9.564-6.258-10.181-15.26-7.059-24.916,3.709-11.474,12.916-17.883,24.912-17.153,20.069,1.223,24.892,15.516,26.7,33.362,3.7-2.33,7.805-4.895,7.779-7.42-.188-18.934-25.071-36.826-43.246-31.649-19.144,5.455-26.947,20.529-22.886,44.217,2.831,16.52,2.849,16.4,18.989,18.581,3.912.527,7.645,2.273,11.523,3.206,10.871,2.615,20.369-5.433,20-16.827-15.2,10.251-28.747,10.194-36.454-1.138,4.5,1.3,8.932,3.175,13.525,3.768,10.356,1.335,18.741-2.05,23.1-12.2,4.3-10.013,1.4-18.689-6.448-25.485-7.794-6.75-16.757-6.86-25.216-1.376-9.011,5.838-11.4,14.63-8.724,24.809.912,3.473,2.326,6.816,3.51,10.216m162.074,87.544V253.305q-1.234-1.129-2.47-2.263c-1.689,2.608-3.88,5.026-4.969,7.866-2.86,7.459-5.637,15-7.737,22.693-4.367,16-1.538,18.916,14.936,16.269q-5.809,4.408-11.61,8.8c0,3.389,1.5,8.556-.254,10.17-8.5,7.809-16.853,17.417-27.168,21.284-20.975,7.864-42.439,12.468-65.541,2.961-21.085-8.676-29.87-14.008-37.5-34.167a3.694,3.694,0,0,0-1.118-1.823c-9.72-5.956-19.481-11.849-29.231-17.757q-.991,1.424-1.978,2.842c4.7,3.667,9.691,7.019,14.019,11.085,4.652,4.367,12.074,9.212,12.354,14.183.908,16.039,9.363,22.179,23.678,24.15,3.035.42,5.61,3.523,8.68,4.464,6.847,2.1,13.8,4.676,20.846,5.16a298.9,298.9,0,0,0,37.148.059c6.324-.359,12.656-2.5,18.746-4.551,7.186-2.418,13.951-6.138,21.194-8.306,6.858-2.055,10.927-5.473,10.68-12.962-.376-11.339,5.882-18.356,15.341-23.117,8.978-4.518,14.258-11.089,13.179-21.7-.827-8.149-4.039-11.308-17.223-15.708,2,1.9,4.785,2.98,6.459,4.989,3.262,3.917,8.315,8.464,8.129,12.547-.188,4.142-5.442,8.422-9.159,11.914-2.536,2.381-6.249,3.508-9.435,5.188M181.406,267.018q-6.453,3.174-12.91,6.346l-.158,3.243c3.958.193,7.949.766,11.868.446,2.768-.223,5.407-2.3,8.159-2.435,13.586-.667,27.231-1.814,40.773-1.125,11.545.591,22.931,3.864,34.483,5.037,3.313.335,6.949-2.494,10.437-3.871q-.581-2.678-1.16-5.348c-14.9-.615-29.791-1.4-44.7-1.792-15.536-.4-31.082-.427-46.624-.617,6.083-1.58,12.116-4.219,18.262-4.523,14.085-.7,28.229-.319,42.349-.23,4.346.026,8.851-.105,13,.943,20.262,5.107,23.233,3.88,33.165-14.273H152.58c5.693,11.906,14.4,19.536,28.826,18.2m-36.87,100.6c3.02,2.543,6.2,4.923,9.033,7.658,11.223,10.829,24.951,13.129,39.548,10.921,3.208-.486,7.23-4.026,8.339-7.081.8-2.206-1.836-7.621-4.247-8.709-12.5-5.637-25.128-11.378-38.283-15.032-9.545-2.652-16.091-5.9-19.925-15.923-2.265-5.914-8.225-11.954-14.048-14.691-19.159-9-29.993-24.741-25.791-45.423,3.074-15.12,9.816-29.5,14.774-43.778-.8.621-3.989,1.81-4.691,3.858-4.464,12.986-9.429,25.947-12.208,39.336-3.477,16.75,2.591,32.227,10.124,47.025-2.656-1.589-5.311-3.173-8.958-5.352-1.214,6.477-1.324,12.481-3.551,17.553C92,344.029,86.93,346,81.595,341.754c3.361-2.4,6.3-4.512,9.245-6.617-1.479-1.834-3.6-5.459-4.328-5.2-4.052,1.451-9.229,2.908-11.291,6.116-4.033,6.271,1.422,16.5,9.9,16.831,6.847.267,14.82-2.389,20.564-6.293,7.534-5.12,5.707-13.282,1.718-20.57,16.857,9.715,30.863,21.977,36.922,41.34q-4.881-4.352-9.761-8.709-1.165.446-2.328.891c1.107,6.65,2.212,13.3,3.081,18.522-4.252-.536-8.98-2.558-11.525-1-2.039,1.247-3.171,8.4-1.6,10.135,2.6,2.888,7.93,5.278,11.671,4.753,7.573-1.061,11.693-6.788,11.735-14.674.018-3.219-.685-6.437-1.059-9.656M258.846,226.895c7.273-12.135,5.976-21.706-3.2-23.244-11.735-1.965-14.035-9.223-16.076-18.406A34.535,34.535,0,0,0,234.9,174.29c-7.908-12.273-20.056-12.415-27.931-.1a45.963,45.963,0,0,0-5.974,15.043c-1.582,7.492-4.354,11.84-12.862,13.485-10.807,2.092-13.267,11.886-6.284,21.419.954-8.969,3.674-16.2,14.382-15.38,11.632.888,18.135,9.4,18.286,23.693H226.14c2.313-15.68,9.709-24.6,20.476-24.061,9.713.49,12.529,7.269,12.229,18.5M238.1,325.66c.129.444.26.888.389,1.333,5.451-1.562,11.236-2.446,16.256-4.895,4.416-2.153,7.974-6.057,11.91-9.188-4.245-4.4-7.818-11.3-12.879-12.656-9.895-2.654-20.623-2.945-30.995-2.86-12.17.1-24.492.788-36.408,3.024-4.225.792-8.081,6.486-10.809,10.77-.954,1.5,1.258,7.129,3.282,8.022,6.5,2.866,13.488,5.661,20.459,6.177,12.866.956,25.855.274,38.8.274M48.762,244.61c4.217-16.352,11.923-32.415,5.93-50.3-1.928-5.753.265-13.864,2.831-19.943,5.8-13.744,18.376-18.5,31.4-13.293,11.512,4.6,17.452,17.833,13.341,30.887-1.394,4.431-3.413,9.1-6.451,12.485-5.3,5.919-4.195,11.214,1.254,14.93,3.133,2.138,11.059,3.039,11.938,1.569,2.319-3.871,2.761-9.387,2.486-14.166-.392-6.831-3.381-13.676-2.921-20.354.691-9.987-2.814-17.115-9.365-24.222-14.072-15.271-35.461-13.654-43.576,5.521-4.144,9.792-3.267,21.824-4.037,32.887-.674,9.687-.278,19.446-.753,29.152-.243,4.971-1.359,9.9-2.079,14.849m38.557-41.972c8.49-8.5,8.114-17.531,3.481-26.306-4.475-8.477-12.844-8.928-21.028-6.711-9.21,2.492-14.663,13.492-11.608,26.345,3.044,12.8,3.508,24.516-1.735,37.067-4.308,10.308.565,19.645,10.247,24.05a27.475,27.475,0,0,0,.6-5.234c-1.409-17.431-3.186-34.837-4.308-52.285-.7-10.853,5.232-18.986,12.873-17.938,9.748,1.339,11.741,8.354,10.621,16.98-.125.956.4,2,.856,4.033m289.175,54.8c8.538-6.672,12.794-14.862,8.731-24.085-5.834-13.243-4.936-25.918-1.7-39.316,1.033-4.258.015-9.422-1.363-13.759-2.641-8.3-9.33-12.991-17.608-11.124-5.577,1.256-12.122,5.171-15,9.875-4.608,7.521-1.372,16.958,4.873,22.146,0-2.4-.969-5.551.188-7.3,2.943-4.442,6.267-10.5,10.538-11.584,3.206-.814,9.033,4.392,11.956,8.236,2.037,2.68,1.7,7.632,1.446,11.505-1.14,17.431-2.639,34.839-3.939,52.261-.042.565.678,1.186,1.877,3.14m-34.216,61.782c-6.269,7.956-15.492,13.271-9.024,24.181,5.21,8.787,13.172,12.464,23.185,9.943,7.669-1.93,12.4-7.348,10.113-15.262-1.02-3.521-5.864-6.251-9.512-8.437-.766-.457-3.908,3.055-5.956,4.735,2.54,2.514,5.085,5.024,9.061,8.958-18.205,1.136-12.862-14.573-17.868-24.117m7.569-25.66c-1.23,4.715-1.961,8.6-3.258,12.282-2.9,8.223-.956,14.551,7.256,17.886,8.251,3.354,16.164,2.171,21.446-5.442,4.58-6.6,4.676-13.941-1.7-19.7-1.573-1.424-5.332-1.007-7.9-.5-1.125.221-2.845,3.707-2.466,4.149a28.231,28.231,0,0,0,6.035,4.755,11.076,11.076,0,0,0,2.947.923c-14.374,6.383-13.229-9.969-22.363-14.35m-258.524-.19c-16.035,16.949-16.035,16.949-19.516,16.074,1.919-2.589,4.131-5.571,6.343-8.553-1.947-1.4-4.888-4.4-5.672-3.919-3.372,2.081-8.72,5.363-8.553,7.888.392,5.9,1.952,14.47,5.969,16.717,5.269,2.947,14.013,2.547,19.967.241,3.151-1.217,4.453-9.444,4.912-14.656.352-3.974-1.932-8.179-3.451-13.792M63.5,273.766a32.006,32.006,0,0,0,4.28-1.214c3.133-1.538,6.214-3.184,9.313-4.788-1.335-1.958-2.674-5.558-4.009-5.556-3.637,0-9.184.416-10.505,2.685-2.663,4.569-5.2,11.223-3.7,15.617,1.435,4.2,7.735,8.693,12.472,9.453,14.8,2.368,24.006-9.275,20.951-25.389-9.324,1.853-12.954,18.507-28.8,9.192M234.811,118.83c-2.177-13.087-4.227-25.783-14.028-37.7-9.431,12.481-12.986,24.15-12.947,37.7ZM79.792,244.26q-1.94-1.526-3.88-3.059c-1.549,2.943-5.092,6.844-4.234,8.628,1.849,3.84,5.6,8.615,9.24,9.278,4.615.838,12.7-.519,14.367-3.593,4.65-8.6,6.761-18.566,10.061-28.553-11.028-1.67-15.284,3.781-18.719,11.383-2.118,4.687-5.532,8.8-8.536,13.048-.217.306-1.84-.383-3.267-.716,1.818-2.35,3.394-4.381,4.967-6.416m34.6,94.951c1.352,6.37,2.785,11.766,3.586,17.253,1.044,7.151-1.939,9.4-8.949,8.063,1.449-2.16,3.512-4.44,4.376-7.109.2-.63-4.2-4.083-5.5-3.6-3.083,1.153-7.046,3.354-8.026,6.081-2.615,7.273,1.12,11.91,8.527,13.358,9.853,1.926,18.323-4.195,20.8-14.811,2.164-9.267-1.947-15.227-14.82-19.236m106.6,103.87c-6.792,5.678-15.245,9.367-15.621,13.755-.821,9.523,8.879,10.26,15.908,10.214,6.72-.042,15.93-1.484,15.008-10.148-.477-4.483-8.669-8.146-15.295-13.82m-76.2-190.417c0,13.538-.689,25.087.4,36.463.341,3.556,5.49,6.65,8.437,9.956,2.466-2.4,7.2-4.982,7.033-7.188-1.1-14.466-6.394-27.452-15.875-39.231m63.048,232.809a5.236,5.236,0,0,0-.726-2.326c-1.429-2.455-3.136-4.746-4.729-7.1-2.024,1.79-5.844,3.757-5.689,5.332.3,3.077,2.162,7.667,4.549,8.593a53.309,53.309,0,0,0,38.48.142c2.521-.934,4.177-6.017,4.75-9.435.208-1.243-3.9-3.212-6.039-4.851-1.4,3.017-2.783,6.05-4.227,9.048a12.627,12.627,0,0,1-1.1,1.8l-25.266-1.2m54.871-320.246c.319-.755.641-1.51.958-2.263-.961-.374-2.144-.505-2.851-1.158-4.772-4.4-11.577-8.114-13.628-13.586-2.8-7.47,4.216-10.864,10.634-13.733,2.247-1,3-5.352,4.435-8.173q-1.277-2.071-2.556-4.14c-7.337,8.72-15.074,12.921-21.369,6.332-.827,7.122-1.742,15.008-2.869,24.7,7.89,3.479,17.568,7.748,27.244,12.017M230.492,389.879l2.75-3.319c-2.052-6.5-2.834-13.989-6.748-19.054-1.7-2.2-12.825-1.177-14.4,1.488-2.68,4.549-3.661,14.641-.917,16.822,4.6,3.663,12.691,2.941,19.31,4.063m105.316,12.9c5.313,2.586,11.006,7.812,15.77,7.068,6.219-.972,12.067-6.227,17.3-10.571,1.746-1.451,1.109-5.772,1.562-8.781l-1.4-.234c-.713,1.473-1.429,2.947-1.249,2.58-4.54-3.494-8.949-7.5-14.024-10.308-1.1-.606-4.589,3.116-8.118,5.672h11.814c0,3.057.895,8.378-.147,8.79-5.91,2.328-12.282,3.483-21.5,5.785M163.816,444.759c-7.674,5.247-7.129,12.884,2.508,24.461a60.055,60.055,0,0,1,6.919-2.558c4.138-1.015,9.177-.589,12.28-2.88,2.442-1.8,3.409-6.807,3.311-10.343-.048-1.775-3.932-3.442-6.081-5.157-1.737,2.768-3.553,5.486-5.184,8.313-1.171,2.037-2.092,4.219-3.125,6.335l-3.781.737-6.847-18.908M93.608,388.527c-.184-1.326-.368-2.648-.551-3.974-11.93-9.82-14,9.321-22.126,11.168,3.322,10.608,10.943,15.665,21.47,14.319,4.413-.567,8.328-5.037,11.836-7.319-8-2.013-14.21-2.993-19.77-5.444-1.177-.521.018-6.42.12-9.84l9.022,1.09M54.795,93.588c-9.879,2.849-16.164,9.175-16.2,19.1-.035,9.595,6.1,17.645,15.6,18.124,12.03.61,24.225-2.013,36.347-3.243q-.312-2.179-.621-4.361c-3.746.567-7.488,1.177-11.24,1.694-6.44.886-12.908,2.562-19.323,2.394-13.98-.361-20.247-13-12.527-24.627,2.116-3.188,5.068-5.82,7.967-9.078M351.981,123.2l-.486,3.912c10.251,1.694,20.452,4.149,30.774,4.858,9.636.663,18.056-6.84,19.735-15.562,1.821-9.477-2.54-16.98-13.126-21.24,2.512,3.171,4.709,5.44,6.321,8.065,6.967,11.337.79,23.448-12.555,24.058-5.35.247-10.785-.947-16.155-1.683-4.853-.665-9.674-1.6-14.507-2.409m-61.95,256.128c-3.665,2.621-8.89,4.5-10.59,8.059-2.015,4.221-2.81,10.943-.7,14.588,1.6,2.757,9.188,4.125,12.986,2.825,2.8-.954,4.378-7.1,5.2-11.2.256-1.273-3.75-3.4-5.805-5.14-2.127,2.827-4.252,5.654-6.648,8.838-7.492-8.188,3.584-11.433,5.553-17.973M157.566,397.94l-7.3-9.293c-2.265,2.483-6.879,5.873-6.339,7.273,1.468,3.8,4.658,8.72,8.033,9.516,3.586.849,10.111-1.414,11.8-4.357,1.956-3.4.039-9.035-.195-13.7l-2.842.328c-1.085,3.512-2.171,7.026-3.16,10.229M35.815,282.731a3.628,3.628,0,0,0-1.926.908c-4.486,5.024-8.842,10.166-13.31,15.348,14.682,8.223,23.894,6.42,29.691-4.367-3.676,0-8.761,1.389-11.921-.477-2.186-1.3-1.713-7.081-2.534-11.411M237.875,6.626c12.956,14.42,9.422,32.675,10.407,49.828,10.713-14.857,4.777-41.172-10.407-49.828M391.26,294.608c6.895,10.017,17.424,11.84,29.9,4.1-5.416-5.674-10.739-11.254-15.444-16.183-.814,4.319-.3,10.087-2.591,11.61-2.934,1.947-8.14.473-11.864.473M262.11,70.6q.729,1.257,1.46,2.516c11.352-6.282,23.349-11.671,33.76-19.244,4.68-3.4,8.286-11.052,8.608-16.98.414-7.532-5.063-13.2-14.043-14.389,16.116,14.892,14.12,26.1-5.4,35.17-8.33,3.873-16.266,8.593-24.38,12.927m-1.317,334.57q-1.024.758-2.046,1.521-1.743-6.768-3.488-13.534c-2.737,2.989-5.171,7.177-4.127,10.142,1.232,3.494,5.037,7.1,8.564,8.416,2.378.886,7.391-1.28,9.046-3.619,1.628-2.3,1.092-6.7.278-9.864-.3-1.164-4.109-1.424-6.315-2.1q-.955,4.52-1.912,9.039m-38.8-118.994c-5.232-4.376-8.4-8.976-10.864-8.623-3.619.516-6.735,4.569-10.063,7.116,3.164,3.206,5.866,7.512,9.7,9.122,1.783.746,5.766-3.744,11.227-7.615M37.4,262.3,33.5,263.334c1.026,4.354.683,10.477,3.433,12.615,3.424,2.663,9.4,2.3,14.3,2.516.654.026,2.8-5.009,2-6.324-2.306-3.788-5.77-6.871-8.954-10.424-1.127,2.21-1.88,3.683-2.86,5.6L37.4,262.3M267.174,80.245c12.028-6.606,22.546-11.932,32.6-18.032,9.917-6.02,12.223-11.019,11.372-20.995-4.707,23.258-33.073,19.881-43.97,39.027M117.526,96.916C111.951,94,106.393,91.054,100.8,88.175,84.6,79.838,81.8,72.8,87.916,55.705c-14.251,17.978-.775,37.8,29.61,41.211m79.925,192.425.2-4.311c-3.074-2.092-6.748-6.4-9.083-5.768-3.667.993-6.433,5.319-9.58,8.234,2.569,2.446,5.1,6.829,7.711,6.869,3.556.059,7.164-3.192,10.748-5.024m43.638-.937q.125-2.091.252-4.179c-3.389-2.409-6.707-6.5-10.192-6.652-2.429-.1-6.65,4.969-7.133,8.175-.37,2.444,3.888,7.914,6.052,7.895,3.689-.033,7.35-3.319,11.022-5.238M323.572,98.231c30.481-4.346,44.193-24.4,29.653-43.325,13.538,30.338-15.68,31.014-29.653,43.325M253.99,298.978c3.816-5.674,7.893-9.12,7.37-11.6-.676-3.23-5.006-5.691-7.763-8.483-2.864,3.041-7.015,5.7-8.079,9.273-.578,1.95,4.081,5.455,8.472,10.814m152.617-35.537c-3.529.823-5.936,1.184-8.2,1.963-2.842.978-6.339,1.632-8.1,3.68-1.468,1.7-1.969,5.969-.81,7.7,1.052,1.58,4.967,1.895,7.54,1.7,9.326-.718,11.86-6.131,9.569-15.048m14.153,14.091c-.505-20.161-4.75-29.92-19.492-45.931,6.05,14.256,12.849,30.277,19.492,45.931M235,326.927c-4.3,3.936-7.643,6.991-10.98,10.046,2.184,1.884,5.048,5.761,6.427,5.289,4.654-1.591,8.781-4.729,13.111-7.273L235,326.927m-28.842-.013c-3.591,3.549-5.783,5.715-7.973,7.882,3.974,2.58,7.691,5.982,12.046,7.346,1.8.562,4.969-3.252,7.514-5.074-3.446-3.02-6.893-6.041-11.586-10.153M24.419,365.3q-.2,2.091-.4,4.181c5.208,1.291,10.595,4.149,15.584,3.567,13.124-1.532,14.971-13.448,19.039-23.306C52,364.915,41.476,371.718,24.419,365.3M220.2,146.4l9.7-8.221c-2.989-2.374-5.8-6.284-9.022-6.663-2.831-.33-6.125,3.3-9.214,5.175,2.459,2.8,4.919,5.6,8.536,9.709m134.854-13.529c32.544,9.455,40.863,8.225,47.723-7.387-14.6,17.006-31.693,7.949-47.723,7.387M85.17,134.606c.112-.821.158-1.166.2-1.51-15.334-.6-31.59,9.571-45.751-4.792,13.444,18.315,29.94,8.284,45.548,6.3M73.6,203.744l5.978-.61v-15.9q-4.349.158-8.7.315,1.359,8.1,2.722,16.192m-7.8,32.743q1.428,1.441,2.853,2.884l13.582-5.9-.912-3.111-8.256-3.75,1.759-5.251q-1.825-.633-3.648-1.263-2.688,8.2-5.378,16.4M237.868,67.917l-3.072.519q.492,4,.989,8.011c3.534-.562,8.628.149,10.315-1.919,5.486-6.724,2.144-12.205-4.674-16.794l1.923,16.078c-.9.179-1.8.361-2.7.538q-1.392-3.217-2.781-6.433M106.133,381.509c.442,18.194,10.262,34.4,23.735,39.677l4.276-4.3c-6.385-4.133-14.267-7.081-18.746-12.726-4.678-5.9-6.081-14.391-9.264-22.651m28.3,56.749c-4.136,3.477-6.9,8.831-1.494,13.706,3,2.709,8.809,2.663,13.4,2.912.751.039,1.768-4.827,2.663-7.426l-2.661-1.044c-2.33,2.21-4.663,4.42-9.6,9.1-1.026-7.647-1.685-12.56-2.313-17.249M369.8,190.4c-.431,2.711-.324,4.516-1.037,5.9a30.633,30.633,0,0,1-3.908,5.1c-.807.976-1.726,1.86-2.6,2.785,3.934-1.689,7.238-4.359,8.448-7.77.98-2.764.1-6.761-1.319-9.507-.525-1.013-6.16-1.044-7.321.313-1.912,2.23-2.081,5.956-2.987,9.052l2.77,1.149L369.8,190.4M162.588,117.8c-11.043-4.553-26.739-1.273-35.725,5.276l35.725-5.276m38.428-43.478q-1.382-.236-2.766-.477c.359-5.065.718-10.133,1.1-15.547-6.146,4.755-8.952,10.3-3.521,16.5,1.667,1.9,6.42,1.985,9.442,1.363,1.112-.228,1.311-4.9,1.923-7.545l-3.057-.713-3.125,6.413M273,81.941q.821,1.319,1.637,2.639l36.852-21.66-1.53-2.453Q291.484,71.2,273,81.941m-68.674,86.8c-14.923,11.468-16.969,17.094-9.1,24.065l9.1-24.065M170.759,284.9q-5.488,13.1-10.976,26.2c8.553-6.709,14.42-14.531,10.976-26.2m66.1-117.344c3.689,9.833,6.663,17.768,9.781,26.085,6.772-9.092,5.908-11.507-9.781-26.085M97.006,377.138c.558-.672,1.116-1.348,1.674-2.02-2.265-4.91-4.529-9.82-8.28-17.949-2.621,6.4-6.022,11.466-4.954,12.717,2.816,3.3,7.573,4.947,11.56,7.251M312.439,121.784c-10.238-4.3-20.842-9.179-32.725-3.1q16.362,1.549,32.725,3.1M148.446,33.925q-.013,2.357-.024,4.713c4.722,0,10.374,1.613,13.916-.431,3.9-2.254,5.858-7.868,8.663-12.017q-1.507-1.09-3.015-2.175c-3.192,9.833-9.877,12.8-19.54,9.91M357.51,232.208l16.743,8.372c.565-13.319-1.86-14.838-16.743-8.372m-91.761,97.555q-1.68-3.072-3.365-6.144-6.5,4-12.993,8c.95,1.33,2.357,3.947,2.779,3.8,4.617-1.634,9.076-3.7,13.579-5.654m-83.2-6.138c-2.51,1.967-4.026,3.153-5.54,4.339,3.085,2.562,6.009,5.392,9.407,7.431.608.363,3.182-2.547,4.847-3.945-2.766-2.484-5.529-4.967-8.713-7.825M355.473,139.668c19.42,7.512,30.5,8.041,37.1,3.72l-37.1-3.72M271,285.5q-2.3.916-4.613,1.831,5.491,11.566,10.98,23.135l3.346-1.56Q275.862,297.2,271,285.5M56.313,388.319c13.617-4.89,14.048-19.378,19.251-30.535-6.451,10.234-12.9,20.465-19.251,30.535M45.5,143.862c14.715,4.4,26.441.591,38.126-3.912L45.5,143.862m246-107.233c-6.47-2.536-12.722-4.989-18.406-7.219,2.337,11.153,8.987,13.785,18.406,7.219M414.012,190.08c.133,7.3-7.991,20.938,6.07,27.638-2.2-10.008-4.536-20.645-6.07-27.638M149.932,76.689q.912-1.441,1.825-2.88L125.95,54.18l-1.273,1.466Q137.3,66.169,149.932,76.689m98.945,46.76q2.032-.62,4.061-1.243-4.9-12.38-9.809-24.763-1.057.414-2.114.825,3.932,12.59,7.862,25.181m-71.14-49.872,1.989-2.512-23.61-13.523-1.168,2.007,22.789,14.028M19.662,217.672c15.424-8.728,5.413-23.634,8.124-35.627-2.4,11.849,3.2,25.662-8.124,35.627m186.592,5.251c-4.1-2.409-6.427-4.365-9.089-5.065-1.1-.291-2.915,2.1-4.4,3.28,2.223,1.849,4.241,4.14,6.774,5.328.982.462,3.133-1.565,6.72-3.543M342.546,186.17c1.9-11.485,7.739-19.641,19.77-22.684-15.378,1.733-19.84,6.89-19.77,22.684m-102.2-62.5,3.842-.963q-3.3-11.015-6.608-22.028l-2.2.65q2.481,11.169,4.967,22.341m-43.154-1.6c1.322.383,2.641.77,3.963,1.153q2.468-11.169,4.936-22.345c-.753-.2-1.5-.4-2.256-.591q-3.322,10.89-6.643,21.783m45.217,106.082c2.3-2.764,4.184-4.6,5.339-6.818.206-.4-3.217-3.687-3.9-3.368a16.669,16.669,0,0,0-5.737,4.985c-.236.3,2.186,2.683,4.3,5.2m184.92-15.625c-10.671-6.969-7-18.645-8.481-28.592,1.5,10-4.477,22.236,8.481,28.592" fill="#f7f7f7"/>
      <path id="Path_86" data-name="Path 86" d="M157.277,124.133c-13.035,7.724-23.384,1.807-33.253-6.542q-1.556-2.921-3.112-5.849c-2.133-22.8,7.225-36.583,25.284-34.71,6.939.72,13.332,6.722,19.973,10.317q-1.047.817-2.1,1.63C153.128,79.47,144.124,77.6,134.73,83c-9.011,5.184-11.792,13.317-10.208,23.089,2.188,13.472,14.253,19.542,31.192,15.973l1.562,2.068" transform="translate(143.303 91.322)" fill="#f7f7f7"/>
      <path id="Path_87" data-name="Path 87" d="M147.111,81.655c8.757,15.337,5.816,27.483-8.9,36.782q-.781-1.031-1.558-2.063c11.855-8.739,13.87-19.962,8.352-33.089.7-.543,1.4-1.085,2.1-1.63" transform="translate(162.364 97.016)" fill="#f7f7f7"/>
      <path id="Path_88" data-name="Path 88" d="M78.534,113.7c-8.853-.151-16.568-8.3-16.216-17.124a16.259,16.259,0,1,1,32.494,1.258c-.394,8.691-7.9,16.008-16.277,15.866m3.659-4.249c2.175-2.978,8.75-8.12,8.118-12.127-.748-4.764-7.691-8.553-11.949-12.763-3.908,3.976-10.03,7.394-11.212,12.061-1.838,7.278,3.317,12.03,15.043,12.829" transform="translate(74.028 96.012)" fill="#f7f7f7"/>
      <path id="Path_89" data-name="Path 89" d="M156.571,96.8c.061,9.593-7.011,17-16.085,16.848a16.433,16.433,0,0,1-15.822-16.166,16.217,16.217,0,0,1,16.315-16.667c9.052.138,15.529,6.779,15.592,15.984m-3.225-3.551c-3.271-2.271-7.711-7.621-12.811-8.35-7.2-1.026-11.991,4.575-12,12.162-.011,7.755,4.724,12,12.341,11.962,7.7-.033,11.728-4.525,12.472-15.774" transform="translate(148.114 96.02)" fill="#f7f7f7"/>
    </g>
  </g>
</svg>
